<svg xmlns="http://www.w3.org/2000/svg" xmlns:xlink="http://www.w3.org/1999/xlink" version="1.1" x="0px" y="0px" viewBox="0 0 100 125" enable-background="new 0 0 100 100" xml:space="preserve"><g><g><path d="M53.187,39.02v10.594c0,0.786-0.271,1.448-0.809,1.986c-0.541,0.54-1.177,0.81-1.913,0.81s-1.375-0.27-1.913-0.81    c-0.541-0.538-0.81-1.2-0.81-1.986V39.02c-2.257-0.686-4.145-1.986-5.665-3.899c-1.522-1.913-2.281-4.069-2.281-6.474    c0-2.403,0.759-4.562,2.281-6.474c1.52-1.913,3.407-3.164,5.665-3.752V7.679c0-0.784,0.269-1.42,0.81-1.913    c0.538-0.49,1.177-0.736,1.913-0.736s1.373,0.246,1.913,0.736c0.538,0.492,0.809,1.129,0.809,1.913V18.42    c2.354,0.589,4.267,1.839,5.738,3.752c1.471,1.913,2.207,4.071,2.207,6.474c0,2.405-0.736,4.561-2.207,6.474    C57.454,37.034,55.541,38.334,53.187,39.02z M54.216,32.251c0.979-0.979,1.472-2.157,1.472-3.532c0-1.471-0.515-2.722-1.545-3.752    c-1.03-1.03-2.258-1.545-3.679-1.545c-1.423,0-2.648,0.515-3.678,1.545c-1.03,1.03-1.545,2.281-1.545,3.752    c0,1.375,0.49,2.552,1.472,3.532c0.979,0.981,2.156,1.521,3.531,1.618h0.147h0.147h0.147    C52.058,33.773,53.235,33.233,54.216,32.251z"/></g><g><path d="M52.666,65.74v8.566c0,0.636-0.22,1.171-0.654,1.606c-0.437,0.437-0.952,0.655-1.547,0.655    c-0.595,0-1.112-0.218-1.547-0.655c-0.437-0.435-0.655-0.971-0.655-1.606V65.74c-1.825-0.554-3.352-1.606-4.58-3.153    c-1.231-1.547-1.844-3.291-1.844-5.235c0-1.943,0.614-3.689,1.844-5.235c1.229-1.547,2.755-2.558,4.58-3.034v-8.686    c0-0.634,0.218-1.149,0.655-1.547c0.435-0.396,0.952-0.595,1.547-0.595c0.595,0,1.11,0.199,1.547,0.595    c0.435,0.398,0.654,0.913,0.654,1.547v8.686c1.904,0.476,3.45,1.487,4.64,3.034c1.189,1.547,1.785,3.292,1.785,5.235    c0,1.945-0.595,3.688-1.785,5.235C56.116,64.133,54.569,65.185,52.666,65.74z M53.498,60.266c0.792-0.792,1.19-1.744,1.19-2.856    c0-1.19-0.417-2.201-1.249-3.034c-0.833-0.833-1.826-1.249-2.975-1.249c-1.151,0-2.142,0.417-2.974,1.249    c-0.833,0.833-1.25,1.844-1.25,3.034c0,1.112,0.396,2.064,1.19,2.856c0.792,0.794,1.744,1.23,2.855,1.308h0.119h0.119h0.119    C51.753,61.497,52.705,61.06,53.498,60.266z"/></g><g><path d="M52.155,86.683v6.58c0,0.488-0.169,0.9-0.503,1.234C51.317,94.833,50.921,95,50.464,95c-0.457,0-0.854-0.167-1.188-0.503    c-0.336-0.334-0.503-0.745-0.503-1.234v-6.58c-1.402-0.426-2.575-1.234-3.518-2.422c-0.945-1.188-1.417-2.528-1.417-4.021    c0-1.492,0.471-2.833,1.417-4.021c0.944-1.188,2.116-1.965,3.518-2.331v-6.672c0-0.487,0.167-0.882,0.503-1.188    c0.334-0.304,0.731-0.457,1.188-0.457c0.457,0,0.853,0.153,1.188,0.457c0.334,0.306,0.503,0.701,0.503,1.188v6.672    c1.462,0.366,2.65,1.142,3.564,2.331c0.914,1.188,1.371,2.529,1.371,4.021c0,1.494-0.457,2.833-1.371,4.021    C54.806,85.449,53.617,86.257,52.155,86.683z M52.795,82.479c0.608-0.608,0.914-1.34,0.914-2.194c0-0.914-0.32-1.691-0.96-2.33    c-0.64-0.64-1.402-0.96-2.285-0.96c-0.884,0-1.645,0.32-2.285,0.96c-0.64,0.64-0.96,1.417-0.96,2.33    c0,0.854,0.304,1.585,0.914,2.194c0.608,0.61,1.339,0.945,2.193,1.005h0.091h0.092h0.091    C51.454,83.424,52.185,83.089,52.795,82.479z"/></g></g><text x="0" y="115" fill="#000000" font-size="5px" font-weight="bold" font-family="'Helvetica Neue', Helvetica, Arial-Unicode, Arial, Sans-serif">Created by Steve Stomp</text><text x="0" y="120" fill="#000000" font-size="5px" font-weight="bold" font-family="'Helvetica Neue', Helvetica, Arial-Unicode, Arial, Sans-serif">from the Noun Project</text></svg>